<?xml version="1.0" encoding="utf-8"?>
<!-- Generator: Adobe Illustrator 23.1.0, SVG Export Plug-In . SVG Version: 6.00 Build 0)  -->
<svg version="1.1" id="Calque_1" xmlns="http://www.w3.org/2000/svg" xmlns:xlink="http://www.w3.org/1999/xlink" x="0px" y="0px"
	 viewBox="0 0 1080 1920" style="enable-background:new 0 0 1080 1920;" xml:space="preserve">
<style type="text/css">
	.st0{opacity:0.15;}
	.st1{fill:#FEC99C;}
	.st2{fill:#345D75;}
	.st3{fill:#6F8C9D;}
</style>
<g class="st0">
	<path class="st1" d="M216.01,1267.4c-2.25-13.54-4.98-27.02-5.27-40.81c-1.48-69.6,25.48-126.37,77.66-171.66
		c16.5-14.32,34.99-25.65,54.93-34.57c41.99-18.77,85.48-32.56,131.08-39.38c4.07-0.61,5.38,0.11,5.95,4.48
		c2.23,17.17,15.57,27.94,33.7,27.34c3.85-0.13,4.55,0.76,4.3,4.42c-4.36,65.22-30.01,120.65-76.87,166.06
		c-39.66,38.44-87.79,61.22-140.99,74.04c-26.32,6.34-53.03,10.01-80.17,10.11c-0.43,0-0.86,0.39-1.29,0.6
		C218.04,1267.82,217.02,1267.61,216.01,1267.4z"/>
	<path class="st1" d="M977.53,760.82c-4.19,6.91-5.75,14.85-8.72,22.25C927.58,885.72,835.17,951.01,727.64,951.9
		c-35.28,0.29-70.5-0.97-105.65-4.16c-2.8-0.25-3.67-0.9-3.46-4.01c0.71-10.37-2.24-19.87-8.95-27.79
		c-2.63-3.11-2.35-5.59-1.01-8.78c16.92-40.29,41.29-75.38,74.34-103.99c51.89-44.92,111.46-72.17,180.75-75.84
		c39.54-2.09,77.89,3.94,115.02,17.72c0.64,0.24,1.32,0.38,1.98,0.57C979.62,750.7,978.58,755.76,977.53,760.82z"/>
	<path class="st1" d="M256.27,738.85c68.78,14.48,126.24,45.78,172.18,97.31c17.98,20.17,32.98,42.36,45.34,66.38
		c1.66,3.23,1.19,4.89-1.26,7.37c-7.8,7.87-12.43,17.37-12.1,28.65c0.11,3.78-1.39,4.87-4.61,5.74c-30.23,8.16-61,12.17-92.28,12.1
		c-58.45-0.14-113.27-13.74-162.64-45.84c-56.18-36.53-93.12-87.32-110.85-152.04c-1.17-4.29-0.02-5.83,3.78-7.52
		c36.36-16.18,74.44-21.37,113.89-18.48C224.58,733.73,241.3,735.85,256.27,738.85z"/>
	<path class="st1" d="M791.01,1250.76c-59.95-12.83-114.37-38.42-158.05-83.87c-39.96-41.58-62.34-91.39-67.48-148.87
		c-0.63-7.09-0.56-7.03,6.42-7.35c13.14-0.6,24.19-4.94,30.63-17.41c1.29-2.5,2.23-5.18,2.29-7.87c0.11-4.63,1.9-5.8,6.51-5.35
		c63.36,6.3,123.12,23.11,175.23,61.21c35.96,26.29,64.57,58.85,80.3,101.31c13.62,36.77,14.79,74.21,5.46,112.17
		c-0.75,3.07-2.2,3.71-4.92,3.72C842.01,1258.46,816.87,1256.08,791.01,1250.76z"/>
	<path class="st1" d="M640.23,732.74c-4.75,23.98-14.31,44.43-25.8,64.18c-14.79,25.41-32.23,48.7-53.13,69.4
		c-2.06,2.05-4.25,3.21-7.1,3.69c-14.87,2.5-28.31-0.75-40.51-9.56c-19.52-14.1-33.7-32.77-45.75-53.27
		c-8.29-14.11-15.61-28.72-22.47-43.59c-12.06-26.18-15.31-53.87-13.16-82.11c5.48-72.12,43.48-124.41,101.67-164.06
		c2.1-1.43,3.67-1.65,5.93-0.19c63.42,40.97,98.51,98.77,103.58,174.35c0.46,6.83,0.14,13.76-0.36,20.61
		C642.59,719.57,641.77,726.95,640.23,732.74z"/>
	<path class="st1" d="M499.64,936.39c4.98-24.48,29.79-41.11,53.74-36.02c23.01,4.89,37.82,27.21,33.16,50
		c-4.92,24.12-30.2,40.99-53.97,36.03C509.52,981.58,494.95,959.46,499.64,936.39z"/>
	<path class="st2" d="M476.12,1010.9c-21.46,54.63-53.58,100.19-98.36,136.6c-20.76,16.88-42.52,32.26-66.76,43.86
		c-5.75,2.75-11.66,5.19-18.06,5.98c-8.09,1-11.32-2.53-9.63-10.56c2.41-11.5,8.78-21.18,14.56-31.14
		c15.9-27.39,38.9-47.94,63.92-66.53c36.23-26.91,73.62-52.16,111.51-76.67C473.87,1012.08,474.48,1011.8,476.12,1010.9z"/>
	<path class="st2" d="M629.52,907.24c7.11-4.41,14.2-8.86,21.33-13.24c30.99-19.03,61.07-39.44,90.29-61.06
		c33.58-24.86,70.35-42.44,111.37-50.81c7.59-1.55,15.26-2.79,23.03-1.34c8.91,1.67,12.11,7.26,8.65,15.9
		c-5.98,14.93-15.76,26.96-29,36.08c-12.15,8.36-26.16,13.03-39.24,19.57c-57.39,28.69-118.74,44.38-181.5,55.46
		c-1.47,0.26-2.96,0.39-4.44,0.57C629.86,907.99,629.69,907.61,629.52,907.24z"/>
	<path class="st2" d="M450.06,910.22c-16.83-1.81-31.83-5.46-46.95-8.38c-33.51-6.46-66.51-14.98-98.82-25.96
		c-25.89-8.8-51.6-18.19-75.2-32.31c-14.47-8.66-26.53-20.18-37.17-33.18c-2.05-2.51-3.83-5.34-5.24-8.26
		c-3.4-7.03-1.01-11.26,6.85-12.1c8.83-0.94,17.57,0.47,26.13,2.33c37.99,8.25,73.61,22.37,106.52,43.23
		c39.35,24.94,79.19,49.1,119.77,72C446.95,908.14,447.88,908.81,450.06,910.22z"/>
	<path class="st2" d="M605.67,1006.84c10.31,6.75,20.68,13.41,30.91,20.27c34.85,23.36,70.12,46.14,103.03,72.22
		c23.81,18.87,43.37,41.7,59.73,67.27c2.7,4.21,5.01,8.66,6.25,13.54c1.86,7.3-1.26,10.76-8.99,9.84c-8.3-0.99-15.97-4.1-23.54-7.44
		c-64.22-28.29-111.68-74.96-147.38-134.49C617.88,1035.06,610.97,1021.6,605.67,1006.84z"/>
	<path class="st2" d="M540.93,849.71c-11.54-23.49-20.14-46.29-26.35-70c-12.17-46.45-12.34-92.89,0.23-139.28
		c2.83-10.45,5.89-20.89,11.38-30.36c6.79-11.72,13.55-11.89,20.17-0.09c8.79,15.68,12.24,33.16,15.81,50.53
		c5.39,26.27,4.26,52.69,1.54,79.12c-2.68,26.09-7.75,51.77-13.87,77.24C547.31,827.38,544.19,837.73,540.93,849.71z"/>
</g>
<path class="st3" d="M249.34,129.7c-0.41-0.48-0.32-0.96,0-1.44C249.34,128.74,249.34,129.22,249.34,129.7z"/>
</svg>
