<?xml version="1.0" encoding="utf-8"?>
<!-- Generator: Adobe Illustrator 23.1.0, SVG Export Plug-In . SVG Version: 6.00 Build 0)  -->
<svg version="1.1" id="Calque_1" xmlns="http://www.w3.org/2000/svg" xmlns:xlink="http://www.w3.org/1999/xlink" x="0px" y="0px"
	 viewBox="0 0 870 210" style="enable-background:new 0 0 870 210;" xml:space="preserve">
<style type="text/css">
	.st0{fill:#FEC99C;}
	.st1{fill:#345D75;}
</style>
<g>
	<g>
		<path class="st0" d="M220.11,54.72c-0.58,1.64-0.57,3.39-0.87,5.08c-4.23,23.49-20.9,41.32-43.57,46.2
			c-7.44,1.6-14.94,2.87-22.5,3.74c-0.6,0.07-0.81-0.03-0.9-0.7c-0.3-2.22-1.34-4.1-3.1-5.48c-0.69-0.54-0.74-1.08-0.6-1.81
			c1.81-9.25,5.43-17.73,11.16-25.22c9-11.76,20.39-20.12,34.87-23.92c8.26-2.17,16.63-2.57,25.07-1.28
			c0.15,0.02,0.3,0.02,0.44,0.03c0,0.3,0,0.59,0,0.89c-0.18,0.45-0.18,0.89,0,1.34C220.11,53.98,220.11,54.35,220.11,54.72z"/>
		<path class="st0" d="M116.61,22.16c1.39,0.6,2.8,1.16,4.17,1.81c13.33,6.35,22,16.64,25.78,30.92c1.69,6.37,1.45,12.81-0.3,19.16
			c-2.06,7.49-5.07,14.56-9.39,21.05c-0.42,0.63-0.92,1.03-1.61,1.27c-2.97,1.08-5.89,0.97-8.77-0.33c-4.74-2.13-8.56-5.45-12-9.25
			c-2.37-2.62-4.56-5.39-6.65-8.23c-3.69-5-5.58-10.72-6.37-16.78c-1.96-15.07,3.49-27.57,13.62-38.39c0.37-0.4,0.87-0.69,1.09-1.23
			C116.32,22.16,116.46,22.16,116.61,22.16z"/>
		<path class="st0" d="M84.66,124.37c-17.18-0.3-31.97-6.13-43.71-18.98c-3.43-3.75-6.23-7.94-8.46-12.5
			c-0.33-0.67-0.35-1.03,0.33-1.52c6.55-4.72,13.85-7.53,21.79-8.76c5.26-0.82,10.55-1.19,15.88-0.93
			c19.21,0.95,35.15,8.67,47.83,23.12c0.05,0.06,0.09,0.12,0.14,0.17c1.49,1.37,2.29,2.67,0.8,4.73c-1.02,1.4-1.1,3.31-0.63,5.06
			c0.23,0.88-0.08,1.2-0.81,1.57c-5.76,2.9-11.81,5-18.1,6.38C94.75,123.79,89.74,124.39,84.66,124.37z"/>
		<path class="st0" d="M202.16,166.38c-13.24-0.08-25.9-3.11-37.13-10.84c-10.34-7.12-17.29-16.76-20.83-28.84
			c-0.28-0.95-0.08-1.22,0.86-1.42c2.89-0.62,5.16-2.04,6-5.11c0.19-0.7,0.21-1.41,0.11-2.1c-0.09-0.66,0.07-0.87,0.77-0.96
			c5.25-0.68,10.52-0.82,15.8-0.53c7.04,0.39,13.93,1.63,20.54,4.16c9.59,3.68,17.91,9.16,23.93,17.65
			c5.36,7.57,7.61,16.08,7.26,25.32c-0.03,0.72-0.38,0.84-0.93,0.96C213.21,165.78,207.84,166.36,202.16,166.38z"/>
		<path class="st0" d="M134.91,136.77c-0.31,17.16-7.19,31.23-20.2,42.3c-9.39,7.99-20.32,12.97-32.29,15.77
			c-0.81,0.19-1.08-0.05-1.37-0.73c-6.55-15.67-4.82-30.52,4.46-44.58c3.01-4.57,6.8-8.44,11.2-11.69
			c8.25-6.09,17.12-11.08,26.77-14.63c0.77-0.28,1.09-0.27,1.39,0.63c1.23,3.61,4.49,5.29,8.37,4.37c0.68-0.16,1.02-0.16,1.06,0.67
			c0.04,0.92,0.28,1.84,0.34,2.76C134.75,133.34,134.97,135.04,134.91,136.77z"/>
		<path class="st0" d="M126.83,112.69c-0.01-5.35,4.41-9.89,9.68-9.95c5.08-0.06,9.29,4.07,9.29,9.12c0.01,5.31-4.6,9.98-9.84,9.96
			C130.88,121.8,126.84,117.77,126.83,112.69z"/>
		<path class="st1" d="M152.88,100.97c1.4-1.33,2.68-2.55,3.97-3.76c5.74-5.4,11.23-11.05,16.49-16.92
			c6.01-6.72,13.01-12.04,21.31-15.6c1.5-0.64,3.03-1.23,4.7-1.28c2.04-0.06,2.99,0.97,2.63,2.98c-0.61,3.42-2.15,6.38-4.55,8.89
			c-2.17,2.27-4.9,3.85-7.34,5.78c-10.9,8.59-23.2,14.62-36.01,19.71c-0.24,0.1-0.48,0.19-0.73,0.28
			C153.27,101.06,153.19,101.02,152.88,100.97z"/>
		<path class="st1" d="M131.75,92.56c-2.97-3.81-5.42-7.57-7.54-11.53c-3.57-6.68-6.03-13.73-6.84-21.27
			c-0.59-5.48-0.64-10.97,0.59-16.4c0.19-0.84,0.48-1.64,0.99-2.34c0.57-0.77,1.29-0.97,2.14-0.48c0.82,0.47,1.46,1.16,1.99,1.93
			c3.78,5.53,6.32,11.59,7.57,18.16c1.72,8.99,1.93,18.07,1.41,27.19C131.97,89.28,131.87,90.75,131.75,92.56z"/>
		<path class="st1" d="M114.97,109.36c-3.28,0.32-6.5,0.22-9.72,0.26c-8.52,0.11-17-0.34-25.43-1.59
			c-5.61-0.84-11.25-1.65-16.47-4.06c-2.81-1.3-5.42-2.93-7.7-5.05c-0.72-0.67-1.62-1.41-1.32-2.53c0.32-1.19,1.52-1.32,2.53-1.49
			c4.11-0.73,8.21-0.28,12.32,0.1c7.43,0.69,14.4,3.11,21.31,5.73c7.74,2.93,15.57,5.58,23.43,8.16
			C114.25,108.98,114.63,109.01,114.97,109.36z"/>
		<path class="st1" d="M152.33,122.94c3.75,1.5,7.5,2.97,11.24,4.5c7.07,2.9,14.18,5.71,21.01,9.16
			c5.85,2.96,10.99,6.91,15.57,11.58c0.68,0.69,1.28,1.44,1.77,2.28c1.03,1.76,0.49,2.75-1.53,2.86c-1.34,0.07-2.67-0.09-3.98-0.36
			c-10.85-2.22-20.6-6.74-29.17-13.81c-5.39-4.45-10.23-9.38-14.34-15.03c-0.24-0.33-0.47-0.67-0.7-1
			C152.24,123.05,152.28,122.99,152.33,122.94z"/>
		<path class="st1" d="M125.11,129.47c-2.15,12.48-6.94,23.51-14.81,33.16c-3.65,4.47-7.57,8.67-12.19,12.18
			c-1.03,0.79-2.11,1.51-3.35,1.97c-1.86,0.68-2.73,0.1-2.7-1.85c0.04-2.49,0.94-4.78,1.72-7.1c2.16-6.48,6.13-11.83,10.6-16.85
			c6.48-7.27,13.27-14.24,20.21-21.07C124.69,129.81,124.81,129.72,125.11,129.47z"/>
	</g>
	<g>
		<path class="st0" d="M306.5,111.9h-52.82c0.06,6.13,1.3,11.54,3.71,16.22c2.41,4.68,5.6,8.21,9.59,10.58
			c3.99,2.37,8.39,3.56,13.2,3.56c3.23,0,6.18-0.38,8.85-1.14c2.67-0.76,5.26-1.94,7.76-3.56c2.51-1.61,4.81-3.35,6.92-5.19
			c2.11-1.85,4.85-4.35,8.21-7.52c1.38-1.19,3.36-1.78,5.93-1.78c2.77,0,5.01,0.76,6.73,2.28c1.71,1.52,2.57,3.66,2.57,6.43
			c0,2.44-0.96,5.29-2.87,8.56c-1.91,3.26-4.8,6.4-8.65,9.4c-3.86,3-8.7,5.49-14.54,7.47c-5.84,1.98-12.55,2.97-20.13,2.97
			c-17.34,0-30.83-4.95-40.45-14.84c-9.63-9.89-14.44-23.31-14.44-40.25c0-7.98,1.19-15.38,3.56-22.21
			c2.37-6.82,5.84-12.68,10.39-17.56c4.55-4.88,10.15-8.62,16.81-11.23c6.66-2.6,14.04-3.91,22.16-3.91
			c10.55,0,19.6,2.23,27.15,6.68c7.55,4.45,13.2,10.2,16.96,17.26c3.76,7.06,5.64,14.24,5.64,21.56c0,6.79-1.95,11.19-5.84,13.2
			C319.03,110.89,313.56,111.9,306.5,111.9z M253.69,96.57h48.96c-0.66-9.23-3.15-16.14-7.47-20.72
			c-4.32-4.58-10.01-6.87-17.06-6.87c-6.73,0-12.25,2.32-16.57,6.97C257.23,80.59,254.61,87.47,253.69,96.57z"/>
		<path class="st0" d="M418.76,147.8l-23.84-39.17l-14.64,13.85v21.46c0,5.21-1.37,9.22-4.1,12.02c-2.74,2.8-5.88,4.2-9.45,4.2
			c-4.15,0-7.42-1.38-9.79-4.15c-2.37-2.77-3.56-6.86-3.56-12.26V28.62c0-6,1.15-10.57,3.46-13.7c2.31-3.13,5.6-4.7,9.89-4.7
			c4.15,0,7.45,1.42,9.89,4.25c2.44,2.84,3.66,7.02,3.66,12.56v65.48l30.36-31.85c3.76-3.96,6.63-6.66,8.6-8.11
			c1.98-1.45,4.38-2.18,7.22-2.18c3.36,0,6.16,1.07,8.41,3.21c2.24,2.14,3.36,4.83,3.36,8.06c0,3.96-3.66,9.23-10.98,15.83
			l-14.34,13.15l27.69,43.52c2.04,3.23,3.51,5.69,4.4,7.37c0.89,1.68,1.34,3.28,1.34,4.8c0,4.29-1.17,7.67-3.51,10.14
			c-2.34,2.47-5.42,3.71-9.25,3.71c-3.3,0-5.84-0.89-7.62-2.67C424.2,155.71,421.79,152.48,418.76,147.8z"/>
		<path class="st0" d="M487.5,163.53l2.47-6.03l-33.23-83.68c-2.05-4.81-3.07-8.31-3.07-10.48c0-2.31,0.59-4.45,1.78-6.43
			c1.19-1.98,2.82-3.56,4.9-4.75c2.08-1.19,4.24-1.78,6.48-1.78c3.89,0,6.82,1.24,8.8,3.71c1.98,2.47,3.72,6.02,5.24,10.63
			l22.85,66.47l21.66-61.82c1.71-5.01,3.26-8.93,4.65-11.77c1.38-2.83,2.85-4.75,4.4-5.74c1.55-0.99,3.74-1.48,6.58-1.48
			c2.04,0,4.01,0.54,5.89,1.63c1.88,1.09,3.33,2.56,4.35,4.4c1.02,1.85,1.53,3.79,1.53,5.84c-0.26,1.25-0.69,3.03-1.29,5.34
			c-0.59,2.31-1.32,4.65-2.18,7.02l-35.21,92.18c-3.03,8.11-6,14.47-8.9,19.09c-2.9,4.61-6.74,8.16-11.52,10.63
			c-4.78,2.47-11.23,3.71-19.34,3.71c-7.91,0-13.85-0.86-17.8-2.57c-3.96-1.72-5.93-4.85-5.93-9.4c0-3.1,0.94-5.49,2.82-7.17
			c1.88-1.68,4.66-2.52,8.36-2.52c1.45,0,2.87,0.2,4.25,0.59c1.71,0.4,3.2,0.59,4.45,0.59c3.1,0,5.54-0.46,7.32-1.38
			c1.78-0.92,3.38-2.52,4.8-4.8C484.02,171.29,485.66,167.94,487.5,163.53z"/>
		<path class="st0" d="M669,70.16v78.43c0,8.97-0.96,16.68-2.87,23.14c-1.91,6.46-4.98,11.8-9.2,16.02
			c-4.22,4.22-9.74,7.35-16.57,9.4c-6.82,2.04-15.31,3.07-25.47,3.07c-9.3,0-17.61-1.3-24.92-3.91
			c-7.32-2.61-12.96-5.97-16.91-10.09c-3.96-4.12-5.93-8.36-5.93-12.71c0-3.3,1.12-5.98,3.36-8.06c2.24-2.08,4.95-3.12,8.11-3.12
			c3.96,0,7.42,1.75,10.39,5.24c1.45,1.78,2.95,3.58,4.5,5.39c1.55,1.81,3.26,3.36,5.14,4.65c1.88,1.29,4.14,2.24,6.78,2.87
			c2.64,0.63,5.67,0.94,9.1,0.94c6.99,0,12.41-0.97,16.27-2.92c3.86-1.95,6.56-4.67,8.11-8.16c1.55-3.5,2.46-7.24,2.72-11.23
			c0.26-3.99,0.46-10.4,0.59-19.24c-4.15,5.8-8.95,10.22-14.39,13.25c-5.44,3.03-11.92,4.55-19.44,4.55
			c-9.03,0-16.93-2.31-23.69-6.92c-6.76-4.61-11.95-11.08-15.58-19.39c-3.63-8.31-5.44-17.9-5.44-28.78c0-8.11,1.1-15.43,3.31-21.96
			c2.21-6.53,5.36-12.03,9.44-16.52c4.09-4.48,8.8-7.86,14.14-10.14c5.34-2.27,11.21-3.41,17.61-3.41c7.65,0,14.27,1.47,19.88,4.4
			c5.6,2.93,10.81,7.53,15.63,13.8v-3.66c0-4.68,1.15-8.31,3.46-10.88c2.31-2.57,5.27-3.86,8.9-3.86c5.21,0,8.67,1.7,10.38,5.09
			C668.14,58.87,669,63.76,669,70.16z M590.76,104.38c0,10.95,2.39,19.22,7.17,24.83c4.78,5.61,10.96,8.41,18.55,8.41
			c4.48,0,8.72-1.2,12.71-3.61c3.99-2.41,7.24-6.03,9.74-10.88c2.51-4.85,3.76-10.73,3.76-17.65c0-11.01-2.42-19.58-7.27-25.72
			c-4.85-6.13-11.23-9.2-19.14-9.2c-7.72,0-13.9,2.93-18.55,8.8C593.09,85.23,590.76,93.57,590.76,104.38z"/>
		<path class="st0" d="M759.5,144.93c-6.53,5.08-12.84,8.89-18.94,11.42c-6.1,2.54-12.94,3.81-20.52,3.81
			c-6.92,0-13.01-1.37-18.25-4.1s-9.28-6.44-12.12-11.13c-2.84-4.68-4.25-9.76-4.25-15.23c0-7.38,2.34-13.68,7.02-18.89
			c4.68-5.21,11.11-8.7,19.29-10.48c1.71-0.4,5.97-1.29,12.76-2.67c6.79-1.38,12.61-2.65,17.46-3.81c4.85-1.15,10.1-2.55,15.78-4.2
			c-0.33-7.12-1.77-12.35-4.3-15.68c-2.54-3.33-7.8-5-15.78-5c-6.86,0-12.02,0.96-15.48,2.87c-3.46,1.91-6.43,4.78-8.9,8.6
			c-2.47,3.82-4.22,6.35-5.24,7.57c-1.02,1.22-3.21,1.83-6.58,1.83c-3.03,0-5.65-0.97-7.86-2.92c-2.21-1.94-3.31-4.43-3.31-7.47
			c0-4.75,1.68-9.36,5.04-13.85c3.36-4.48,8.6-8.18,15.73-11.08c7.12-2.9,15.99-4.35,26.61-4.35c11.87,0,21.2,1.4,27.99,4.2
			c6.79,2.8,11.59,7.24,14.39,13.3c2.8,6.07,4.2,14.11,4.2,24.13c0,6.33-0.02,11.7-0.05,16.12c-0.03,4.42-0.08,9.33-0.15,14.74
			c0,5.08,0.84,10.37,2.52,15.87c1.68,5.51,2.52,9.05,2.52,10.63c0,2.77-1.3,5.29-3.91,7.57c-2.61,2.27-5.56,3.41-8.85,3.41
			c-2.77,0-5.51-1.3-8.21-3.91C765.4,153.65,762.53,149.88,759.5,144.93z M757.72,105.86c-3.96,1.45-9.71,2.98-17.26,4.6
			c-7.55,1.62-12.78,2.8-15.68,3.56c-2.9,0.76-5.67,2.24-8.31,4.45c-2.64,2.21-3.96,5.29-3.96,9.25c0,4.09,1.55,7.57,4.65,10.43
			c3.1,2.87,7.15,4.3,12.17,4.3c5.34,0,10.27-1.17,14.79-3.51c4.52-2.34,7.83-5.36,9.94-9.05c2.44-4.09,3.66-10.81,3.66-20.18
			V105.86z"/>
		<path class="st0" d="M825.27,37.82c-3.76,0-6.97-1.15-9.64-3.46c-2.67-2.31-4.01-5.57-4.01-9.79c0-3.82,1.37-6.97,4.1-9.45
			c2.73-2.47,5.92-3.71,9.54-3.71c3.49,0,6.59,1.12,9.3,3.36c2.7,2.24,4.06,5.51,4.06,9.79c0,4.15-1.32,7.4-3.96,9.74
			C832.03,36.65,828.9,37.82,825.27,37.82z M838.62,65.71v78.04c0,5.41-1.29,9.5-3.86,12.26c-2.57,2.77-5.84,4.15-9.79,4.15
			c-3.96,0-7.17-1.42-9.64-4.25c-2.47-2.83-3.71-6.89-3.71-12.17V66.5c0-5.34,1.24-9.36,3.71-12.07c2.47-2.7,5.69-4.06,9.64-4.06
			c3.96,0,7.22,1.35,9.79,4.06C837.34,57.14,838.62,60.9,838.62,65.71z"/>
	</g>
</g>
</svg>
